<svg xmlns="http://www.w3.org/2000/svg" xmlns:xlink="http://www.w3.org/1999/xlink" viewBox="0 0 1024.87 1024.87"><defs><style>.cls-1{fill:url(#linear-gradient);}.cls-2{fill:#222;}.cls-3{fill:#fff;}</style><linearGradient id="linear-gradient" x1="66.18" y1="624" x2="956.64" y2="401.38" gradientUnits="userSpaceOnUse"><stop offset="0" stop-color="#0b79fb"/><stop offset="1" stop-color="#81f1ae"/></linearGradient></defs><title>STEEZY_LOGOMARK</title><g id="Mask"><rect class="cls-1" width="1024.87" height="1024.87" rx="225.21"/><rect class="cls-2" x="66.44" y="65.43" width="893" height="893" rx="172.6"/><path class="cls-3" d="M679.23,548.29c-9.37-14.9-21.75-26.51-36-35.86h0C591.58,477.26,516,470,472.07,448.87c-21.4-10.29-35.36-23.85-35.36-45.56,0-35.3,25-51.62,66.54-51.62,52.53,0,79.33,24.1,83.24,68.65l103-25.7c-9.2-84.53-71.72-143.71-186.29-143.71-107.16,0-176.31,62.55-176.31,152.41,0,32.81,7.9,57.46,20.88,76.5a119.49,119.49,0,0,0,33.79,32.59h0c53.71,36.56,133.19,43,176.21,66.13,18.53,10,30.34,23,30.34,43,0,35.3-25,51.62-66.54,51.62-51,0-77.72-22.81-82.79-64.95l-103,25.69c10.6,82.56,72.94,140,185.83,140,107.16,0,176.31-62.55,176.31-152.42C697.93,590.57,690.92,566.87,679.23,548.29Z"/></g></svg>